<svg width="114" height="120" viewBox="0 0 114 120" fill="none" xmlns="http://www.w3.org/2000/svg">
<path d="M112.924 86.4872C112.882 86.59 112.834 86.6903 112.781 86.788C107.431 97.2488 99.1067 105.893 88.8551 111.633C78.6035 117.373 66.8829 119.953 55.1687 119.046C55.1687 107.788 55.1687 111.959 55.1687 100.74C49.4809 100.084 43.9925 98.2486 39.0545 95.3508C34.1165 92.453 29.8376 88.5566 26.4913 83.9108C23.1451 79.2649 20.8052 73.9719 19.6213 68.3702C18.4373 62.7684 18.4354 56.9813 19.6156 51.3787C20.2604 48.3108 21.2564 45.3273 22.5838 42.4872L14.7384 37.6753C11.4974 44.2795 9.74449 51.5142 9.60313 58.8695C9.46177 66.2247 10.9354 73.5214 13.9202 80.2453C16.905 86.9692 21.3283 92.9565 26.8782 97.7853C32.4282 102.614 38.9697 106.167 46.0418 108.193V117.634C38.4065 115.803 31.2108 112.474 24.8721 107.84C16.1379 101.419 9.30586 92.7525 5.10151 82.7606C1.17546 73.3844 -0.274405 63.1564 0.891094 53.0585C2.05659 42.9605 5.79832 33.3317 11.7571 25.0964L27.448 34.6548C30.9607 30.117 35.3856 26.366 40.4372 23.6437C45.4889 20.9214 51.0551 19.2882 56.7768 18.8496C62.4985 18.411 68.2486 19.1767 73.6562 21.0972C79.0638 23.0177 84.0087 26.0505 88.172 29.9998C89.5802 31.362 90.891 32.8213 92.0947 34.3671H79.0189C74.2875 30.83 68.6653 28.6788 62.7812 28.1544C56.8971 27.6299 50.9831 28.7527 45.7007 31.3973C40.4183 34.0419 35.9758 38.104 32.8701 43.1291C29.7644 48.1543 28.1179 53.9444 28.1149 59.8518C28.1149 86.6703 57.9407 99.5892 77.5021 86.5003H91.1402C86.4304 92.0354 80.3403 96.2263 73.4879 98.6477C70.5253 99.6848 67.4547 100.382 64.3348 100.727C64.3348 100.792 64.3348 109.88 64.3348 109.945C73.0015 109.182 81.3182 106.167 88.4596 101.197C94.0653 97.3064 98.8247 92.3202 102.451 86.5395L112.924 86.4872Z" fill="#183A60"/>
<path d="M113.5 34.3803H103.17C102.872 33.74 102.503 33.1348 102.072 32.5759C98.0958 26.42 92.8208 21.2089 86.6168 17.3086C80.4128 13.4083 73.4303 10.9132 66.1594 9.99861C58.8885 9.08399 51.5056 9.77197 44.5289 12.0143C37.5522 14.2566 31.1509 17.9988 25.7744 22.9783L17.7197 18.0618C24.4298 11.297 32.6693 6.24646 41.7424 3.33662C50.8154 0.42679 60.4554 -0.256831 69.8483 1.34348C79.2412 2.9438 88.111 6.78105 95.7086 12.5311C103.306 18.2812 109.408 25.7753 113.5 34.3803Z" fill="#E24339"/>
<path fill-rule="evenodd" clip-rule="evenodd" d="M39.0514 38.4926C39.0033 38.5411 38.9639 45.4849 38.9639 53.9232V69.2655H42.509H46.0541V63.3714V57.4773H47.5974H49.1407L54.9825 63.3714L60.8243 69.2655H66.0107H71.1971L65.0148 63.0071C59.1648 57.0851 56.5581 54.3219 56.5581 54.0427C56.5581 53.9398 64.2995 45.6912 69.7218 40.0164C70.5104 39.1911 71.1268 38.4868 71.0916 38.4513C71.0564 38.416 68.7179 38.4297 65.8949 38.4821L60.7621 38.5773L56.6582 42.8286C54.4011 45.1667 51.8498 47.8099 50.9885 48.7024L49.4226 50.3249H47.7384H46.0541V44.3646V38.4043H42.5966C40.6948 38.4043 39.0995 38.444 39.0514 38.4926ZM73.3646 53.8349V69.2655H76.9097H80.4548V53.8349V38.4043H76.9097H73.3646V53.8349ZM86.4978 38.6166C84.5083 39.156 83.3315 40.5904 82.9541 42.9359C82.8698 43.4604 82.8198 48.4874 82.8193 56.517L82.8182 69.2655H86.362H89.9057L89.9399 63.3383L89.9741 57.4111L99.8216 57.3448C109.556 57.2794 109.677 57.2753 110.365 56.9907C111.786 56.4031 112.765 55.3512 113.239 53.9011C113.453 53.2464 113.477 52.6358 113.477 47.8746C113.477 43.1174 113.453 42.5021 113.239 41.848C112.709 40.2227 111.646 39.1721 110.022 38.666C109.213 38.4138 108.78 38.4046 98.1994 38.413C88.9648 38.4203 87.1023 38.4528 86.4978 38.6166ZM106.452 47.8083V50.1925H98.1804H89.9084V47.8967C89.9084 46.6339 89.9478 45.561 89.996 45.5126C90.0441 45.464 93.7664 45.4242 98.2679 45.4242H106.452V47.8083Z" fill="#183A60"/>
<path fill-rule="evenodd" clip-rule="evenodd" d="M39.7503 74.1988C39.3743 74.3281 39.1719 74.5262 39.0304 74.9035C38.9642 75.0798 38.9639 75.0964 38.9639 77.7567C38.9639 80.2552 38.9676 80.444 39.02 80.6047C39.146 80.991 39.4163 81.2504 39.8066 81.3595C40.0061 81.4153 40.1776 81.4184 43.1114 81.4184H46.2058V80.5734V79.7284H43.4138H40.6217L40.6302 79.1729L40.6387 78.6174L43.4227 78.6094L46.2068 78.6014L46.1986 77.7644L46.1903 76.9273L43.406 76.9194L40.6217 76.9114L40.6302 76.356L40.6387 75.8007L43.4222 75.7927L46.2058 75.7847V74.9555V74.1263L43.0811 74.1271L39.9563 74.1279L39.7503 74.1988ZM47.6325 74.1707C47.3066 74.263 47.0739 74.437 46.9371 74.6906C46.7596 75.0197 46.7649 74.9102 46.7645 78.2966L46.7641 81.4184H47.6015H48.4389V78.6015V75.7845L50.3851 75.7926L52.3312 75.8007L52.3391 78.6095L52.3471 81.4184H53.1694H53.9917L53.9829 78.234C53.9762 75.835 53.9647 75.0224 53.9363 74.9396C53.8194 74.5986 53.5516 74.3164 53.2348 74.2003C53.0845 74.1452 52.9262 74.1416 50.4238 74.1366C48.3686 74.1324 47.7407 74.1401 47.6325 74.1707ZM55.4447 74.1717C55.0743 74.2748 54.7921 74.5161 54.6761 74.829C54.5549 75.1558 54.545 75.4123 54.556 77.9445C54.5655 80.1297 54.5718 80.3881 54.62 80.5528C54.7227 80.9036 54.8971 81.123 55.1935 81.2739C55.4832 81.4215 55.5193 81.4231 58.2861 81.4126L60.8913 81.4028L61.0634 81.3325C61.4049 81.193 61.5899 81.0008 61.7214 80.6494C61.7898 80.4664 61.7909 80.4395 61.7995 78.6875L61.8082 76.9112L59.8611 76.9193L57.9139 76.9273L57.9056 77.7645L57.8974 78.6017H59.0144H60.1314V79.1651V79.7284H58.1773H56.2231L56.2311 77.7645L56.2391 75.8007L59.0227 75.7927L61.8062 75.7847V74.9555V74.1263L58.697 74.1291C56.2836 74.1313 55.5558 74.1408 55.4447 74.1717ZM62.3645 77.7724V81.4184H63.2019H64.0393V77.7724V74.1263H63.2019H62.3645V77.7724ZM65.4299 74.186C64.9792 74.3323 64.7099 74.6601 64.6305 75.1591C64.6095 75.2903 64.5979 76.4368 64.5978 78.3905L64.5976 81.4184H65.4348H66.272L66.28 78.6095L66.2879 75.8007L68.2341 75.7926L70.1802 75.7845V78.6015V81.4184H71.0176H71.855L71.8545 78.3592C71.8539 75.0544 71.8541 75.0588 71.6885 74.7291C71.5874 74.5277 71.3405 74.3052 71.1169 74.214L70.9401 74.1419L68.2728 74.1355C65.7669 74.1294 65.5949 74.1324 65.4299 74.186ZM73.2152 74.1988C72.8392 74.3281 72.6369 74.5262 72.4953 74.9035C72.4292 75.0798 72.4288 75.0964 72.4288 77.7567C72.4288 80.2993 72.4317 80.4416 72.4876 80.6135C72.5977 80.952 72.8257 81.1946 73.1662 81.3357C73.3277 81.4025 73.338 81.4028 76.4995 81.4113L79.6707 81.4199V80.5741V79.7284H76.8787H74.0867L74.0951 79.1729L74.1036 78.6174L76.8877 78.6094L79.6718 78.6014L79.6635 77.7644L79.6552 76.9273L76.871 76.9194L74.0867 76.9114L74.0951 76.356L74.1036 75.8007L76.8872 75.7927L79.6707 75.7847V74.9555V74.1263L76.546 74.1271L73.4213 74.1279L73.2152 74.1988ZM81.0941 74.1716C80.6467 74.2962 80.3602 74.6037 80.2617 75.0652C80.2346 75.1922 80.2276 75.9262 80.2348 77.8662C80.2445 80.4933 80.2446 80.4953 80.3129 80.6636C80.4568 81.0183 80.6276 81.1921 80.9689 81.3313L81.1439 81.4028L84.3157 81.4113L87.4875 81.4199L87.4792 80.5819L87.471 79.744L84.6874 79.7361L81.9038 79.7281V79.1621V78.5961L82.1132 78.6024C82.2283 78.6058 83.4846 78.6071 84.905 78.6052L87.4875 78.6017L87.4792 77.7645L87.471 76.9273L84.6874 76.9194L81.9038 76.9114V76.3454V75.7794L82.1132 75.7857C82.2283 75.7891 83.4844 75.7904 84.9045 75.7885L87.4865 75.785V74.9557V74.1263L84.3617 74.1291C81.9376 74.1313 81.205 74.1408 81.0941 74.1716ZM88.9131 74.1689C88.5651 74.2645 88.2884 74.4878 88.1627 74.7744C88.0206 75.0987 88.016 75.2124 88.0148 78.4061L88.0137 81.4184H88.8508H89.6879L89.696 80.0179L89.704 78.6174L90.0588 78.6084L90.4136 78.5996L91.8116 80.009L93.2096 81.4184H94.4341H95.6586L94.2863 80.0334C93.5316 79.2717 92.9141 78.639 92.9141 78.6276C92.9141 78.6161 93.2386 78.6015 93.6351 78.5952C94.2903 78.5846 94.372 78.5772 94.5283 78.5145C94.8676 78.3784 95.087 78.147 95.2012 77.8051C95.2802 77.5686 95.2983 75.3209 95.2236 75.0299C95.1012 74.5531 94.8495 74.2929 94.3919 74.1699C94.1714 74.1107 89.1285 74.1097 88.9131 74.1689ZM96.1396 77.7724V81.4184H96.977H97.8144V77.7724V74.1263H96.977H96.1396V77.7724ZM99.2721 74.1689C98.7496 74.3124 98.4705 74.6648 98.4017 75.2677C98.386 75.406 98.373 76.8463 98.3729 78.4687L98.3727 81.4184H99.2099H100.047L100.055 78.6095L100.063 75.8007H102.001H103.94L103.948 78.6095L103.956 81.4184H104.793H105.63L105.63 78.3279C105.629 75.059 105.628 75.0233 105.487 74.7428C105.345 74.4608 105.087 74.2604 104.751 74.1699C104.53 74.1107 99.4874 74.1097 99.2721 74.1689ZM107.021 74.1988C106.741 74.2953 106.571 74.4212 106.434 74.6349C106.229 74.9543 106.235 74.8633 106.235 77.8037V80.4639L106.305 80.6485C106.444 81.0172 106.702 81.2543 107.078 81.3595C107.276 81.415 107.437 81.4184 109.847 81.418C111.885 81.4178 112.438 81.4092 112.562 81.3758C113.101 81.2302 113.376 80.8904 113.449 80.2777C113.465 80.1371 113.475 79.3411 113.47 78.4765L113.461 76.9273L111.515 76.9193L109.569 76.9112V77.7561V78.6009L110.678 78.6091L111.787 78.6174L111.795 79.1729L111.803 79.7284H109.849H107.894V77.7567V75.785H110.686H113.477V74.9557V74.1263L110.352 74.1271L107.227 74.1279L107.021 74.1988ZM93.5964 76.3484V76.9117H91.6424H89.6885V76.3692C89.6885 76.0708 89.6978 75.8173 89.7092 75.8059C89.7206 75.7944 90.5998 75.785 91.6631 75.785H93.5964V76.3484Z" fill="#E24339"/>
</svg>
