<svg width="276" height="290" viewBox="0 0 276 290" fill="none" xmlns="http://www.w3.org/2000/svg">
<g filter="url(#filter0_di_229_1918)">
<path d="M265.202 203.324C265.102 203.566 264.989 203.803 264.863 204.034C252.244 228.71 232.607 249.102 208.424 262.642C184.241 276.183 156.593 282.267 128.96 280.128C128.96 253.571 128.96 263.41 128.96 236.945C115.543 235.398 102.596 231.069 90.9477 224.233C79.2993 217.397 69.2055 208.206 61.312 197.246C53.4184 186.287 47.8987 173.801 45.1059 160.587C42.313 147.373 42.3085 133.721 45.0926 120.505C46.6137 113.268 48.9631 106.23 52.0944 99.5308L33.5874 88.1798C25.9422 103.759 21.8072 120.825 21.4737 138.176C21.1403 155.526 24.6165 172.739 31.6574 188.6C38.6984 204.461 49.1326 218.585 62.2246 229.976C75.3166 241.366 90.7477 249.747 107.43 254.527V276.797C89.4191 272.477 72.445 264.624 57.4923 253.694C36.8889 238.547 20.7725 218.103 10.8547 194.533C1.59337 172.415 -1.82677 148.288 0.922568 124.468C3.67191 100.647 12.4984 77.9335 26.5547 58.507L63.5687 81.0547C71.8549 70.3503 82.2929 61.5019 94.2095 55.0801C106.126 48.6583 119.256 44.8058 132.754 43.7711C146.251 42.7365 159.815 44.5426 172.571 49.0731C185.327 53.6035 196.992 60.7576 206.813 70.0739C210.135 73.2871 213.227 76.7296 216.066 80.3761H185.221C174.06 72.0321 160.798 66.9577 146.918 65.7205C133.037 64.4832 119.087 67.132 106.626 73.3704C94.1648 79.6089 83.6852 89.191 76.359 101.045C69.0328 112.899 65.1489 126.558 65.1418 140.493C65.1418 203.756 135.499 234.231 181.643 203.355H213.815C202.704 216.412 188.338 226.298 172.174 232.01C165.185 234.456 157.942 236.102 150.582 236.914C150.582 237.068 150.582 258.506 150.582 258.66C171.027 256.861 190.645 249.747 207.491 238.025C220.715 228.846 231.942 217.084 240.495 203.447L265.202 203.324Z" fill="white"/>
<path d="M266.56 80.4065H242.193C241.489 78.896 240.62 77.4684 239.602 76.1499C230.223 61.6285 217.779 49.336 203.145 40.1353C188.51 30.9347 172.038 25.049 154.887 22.8915C137.735 20.734 120.32 22.3569 103.862 27.6463C87.4044 32.9357 72.3041 41.7634 59.6212 53.5097L40.6207 41.912C56.4494 25.9544 75.8859 14.0404 97.2886 7.17628C118.691 0.312166 141.432 -1.30045 163.589 2.47459C185.746 6.24963 206.669 15.3015 224.592 28.8656C242.514 42.4297 256.909 60.1077 266.56 80.4065Z" fill="#E24339"/>
<path fill-rule="evenodd" clip-rule="evenodd" d="M90.9411 90.1073C90.8274 90.2217 90.7345 106.602 90.7345 126.507V162.699H99.0972H107.46V148.795V134.891H111.1H114.741L128.521 148.795L142.302 162.699H154.536H166.771L152.187 147.936C138.387 133.966 132.238 127.448 132.238 126.789C132.238 126.546 150.5 107.088 163.29 93.7017C165.151 91.7549 166.605 90.0936 166.522 90.0098C166.439 89.9264 160.922 89.9589 154.263 90.0823L142.155 90.307L132.474 100.335C127.15 105.851 121.132 112.086 119.1 114.191L115.406 118.019H111.433H107.46V103.959V89.8989H99.3038C94.8177 89.8989 91.0544 89.9927 90.9411 90.1073ZM171.884 126.299V162.699H180.246H188.609V126.299V89.8989H180.246H171.884V126.299ZM202.864 90.3998C198.171 91.6721 195.395 95.0558 194.505 100.589C194.306 101.826 194.188 113.684 194.187 132.626L194.184 162.699H202.544H210.903L210.984 148.717L211.064 134.735L234.294 134.578C257.257 134.424 257.543 134.414 259.166 133.743C262.518 132.357 264.826 129.876 265.944 126.455C266.449 124.911 266.506 123.47 266.506 112.239C266.506 101.017 266.449 99.5653 265.945 98.0225C264.694 94.1885 262.188 91.7102 258.356 90.5163C256.447 89.9214 255.426 89.8996 230.467 89.9196C208.684 89.9367 204.29 90.0133 202.864 90.3998ZM249.935 112.082V117.706H230.423H210.91V112.291C210.91 109.312 211.002 106.781 211.116 106.667C211.229 106.552 220.01 106.458 230.629 106.458H249.935V112.082Z" fill="white"/>
<path fill-rule="evenodd" clip-rule="evenodd" d="M92.5896 174.336C91.7026 174.641 91.2253 175.108 90.8914 175.998C90.7354 176.414 90.7345 176.453 90.7345 182.729C90.7345 188.622 90.7433 189.068 90.867 189.447C91.1643 190.358 91.8019 190.97 92.7225 191.227C93.1931 191.359 93.5975 191.366 100.518 191.366H107.818V189.373V187.38H101.232H94.6453L94.6653 186.069L94.6852 184.759L101.253 184.74L107.82 184.721L107.801 182.747L107.781 180.772L101.213 180.753L94.6453 180.734L94.6653 179.424L94.6852 178.114L101.252 178.096L107.818 178.077V176.121V174.165L100.447 174.167L93.0757 174.169L92.5896 174.336ZM111.183 174.27C110.415 174.487 109.866 174.898 109.543 175.496C109.124 176.272 109.137 176.014 109.136 184.002L109.135 191.366H111.11H113.085V184.721V178.076L117.676 178.095L122.267 178.114L122.286 184.74L122.305 191.366H124.244H126.184L126.163 183.854C126.148 178.195 126.121 176.279 126.054 176.083C125.778 175.279 125.146 174.613 124.399 174.339C124.044 174.209 123.671 174.201 117.768 174.189C112.92 174.179 111.438 174.197 111.183 174.27ZM129.612 174.272C128.738 174.515 128.072 175.084 127.799 175.822C127.513 176.593 127.489 177.198 127.515 183.172C127.538 188.326 127.553 188.936 127.666 189.324C127.909 190.152 128.32 190.669 129.019 191.025C129.703 191.374 129.788 191.377 136.314 191.353L142.46 191.329L142.866 191.164C143.671 190.834 144.108 190.381 144.418 189.552C144.579 189.121 144.582 189.057 144.602 184.924L144.623 180.734L140.03 180.753L135.436 180.772L135.417 182.747L135.397 184.722H138.033H140.668V186.051V187.38H136.058H131.448L131.467 182.747L131.486 178.114L138.052 178.096L144.618 178.077V176.121V174.165L137.284 174.171C131.591 174.176 129.874 174.199 129.612 174.272ZM145.935 182.766V191.366H147.911H149.886V182.766V174.165H147.911H145.935V182.766ZM153.166 174.306C152.103 174.651 151.468 175.424 151.28 176.601C151.231 176.911 151.204 179.615 151.203 184.224L151.203 191.366H153.178H155.153L155.171 184.74L155.19 178.114L159.781 178.095L164.372 178.076V184.721V191.366H166.347H168.323L168.321 184.15C168.32 176.354 168.321 176.364 167.93 175.587C167.691 175.111 167.109 174.587 166.582 174.372L166.164 174.202L159.873 174.186C153.961 174.172 153.556 174.179 153.166 174.306ZM171.531 174.336C170.644 174.641 170.167 175.108 169.833 175.998C169.677 176.414 169.676 176.453 169.676 182.729C169.676 188.726 169.683 189.062 169.815 189.468C170.075 190.266 170.612 190.838 171.416 191.171C171.797 191.329 171.821 191.329 179.279 191.35L186.76 191.37V189.375V187.38H180.173H173.587L173.607 186.069L173.627 184.759L180.194 184.74L186.762 184.721L186.742 182.747L186.723 180.772L180.155 180.753L173.587 180.734L173.607 179.424L173.627 178.114L180.193 178.096L186.76 178.077V176.121V174.165L179.388 174.167L172.017 174.169L171.531 174.336ZM190.117 174.272C189.062 174.565 188.386 175.291 188.154 176.379C188.09 176.679 188.073 178.411 188.09 182.987C188.113 189.184 188.113 189.189 188.274 189.586C188.614 190.422 189.017 190.832 189.822 191.161L190.235 191.329L197.717 191.35L205.199 191.37L205.179 189.393L205.16 187.417L198.593 187.398L192.027 187.379V186.044V184.709L192.521 184.723C192.793 184.732 195.756 184.735 199.107 184.73L205.199 184.722L205.179 182.747L205.16 180.772L198.593 180.753L192.027 180.734V179.399V178.064L192.521 178.079C192.793 178.087 195.756 178.09 199.106 178.086L205.196 178.077V176.121V174.165L197.825 174.171C192.107 174.176 190.379 174.199 190.117 174.272ZM208.562 174.265C207.741 174.491 207.088 175.017 206.792 175.694C206.456 176.458 206.445 176.727 206.443 184.26L206.44 191.366H208.415H210.389L210.408 188.063L210.427 184.759L211.264 184.738L212.101 184.717L215.399 188.042L218.697 191.366H221.585H224.474L221.237 188.099C219.456 186.302 218 184.81 218 184.783C218 184.756 218.765 184.721 219.701 184.706C221.246 184.682 221.439 184.664 221.808 184.516C222.608 184.195 223.126 183.649 223.395 182.843C223.581 182.285 223.624 176.983 223.448 176.296C223.159 175.172 222.565 174.558 221.486 174.268C220.966 174.128 209.07 174.126 208.562 174.265ZM225.608 182.766V191.366H227.584H229.559V182.766V174.165H227.584H225.608V182.766ZM232.998 174.265C231.765 174.604 231.107 175.435 230.945 176.857C230.908 177.183 230.877 180.581 230.877 184.408L230.876 191.366H232.851H234.826L234.845 184.74L234.863 178.114H239.436H244.009L244.027 184.74L244.046 191.366H246.021H247.996L247.995 184.076C247.994 176.365 247.99 176.281 247.658 175.619C247.323 174.954 246.716 174.481 245.922 174.268C245.402 174.128 233.506 174.126 232.998 174.265ZM251.278 174.336C250.616 174.563 250.216 174.86 249.893 175.364C249.409 176.118 249.423 175.903 249.423 182.839V189.115L249.587 189.55C249.916 190.42 250.524 190.979 251.411 191.227C251.878 191.358 252.258 191.366 257.944 191.365C262.752 191.365 264.056 191.344 264.348 191.266C265.62 190.922 266.267 190.121 266.439 188.675C266.479 188.344 266.501 186.466 266.49 184.427L266.469 180.772L261.879 180.753L257.288 180.734V182.727V184.72L259.903 184.739L262.519 184.759L262.539 186.069L262.559 187.38H257.948H253.337V182.729V178.077H259.921H266.506V176.121V174.165L259.135 174.167L251.764 174.169L251.278 174.336ZM219.609 179.406V180.735H215H210.391V179.456C210.391 178.752 210.413 178.154 210.44 178.127C210.466 178.1 212.541 178.077 215.049 178.077H219.609V179.406Z" fill="white"/>
</g>
<defs>
<filter id="filter0_di_229_1918" x="0" y="0.484863" width="275.699" height="289.201" filterUnits="userSpaceOnUse" color-interpolation-filters="sRGB">
<feFlood flood-opacity="0" result="BackgroundImageFix"/>
<feColorMatrix in="SourceAlpha" type="matrix" values="0 0 0 0 0 0 0 0 0 0 0 0 0 0 0 0 0 0 127 0" result="hardAlpha"/>
<feOffset dx="5.3312" dy="5.3312"/>
<feGaussianBlur stdDeviation="1.904"/>
<feComposite in2="hardAlpha" operator="out"/>
<feColorMatrix type="matrix" values="0 0 0 0 0 0 0 0 0 0 0 0 0 0 0 0 0 0 0.25 0"/>
<feBlend mode="normal" in2="BackgroundImageFix" result="effect1_dropShadow_229_1918"/>
<feBlend mode="normal" in="SourceGraphic" in2="effect1_dropShadow_229_1918" result="shape"/>
<feColorMatrix in="SourceAlpha" type="matrix" values="0 0 0 0 0 0 0 0 0 0 0 0 0 0 0 0 0 0 127 0" result="hardAlpha"/>
<feOffset dy="2.2848"/>
<feGaussianBlur stdDeviation="1.5232"/>
<feComposite in2="hardAlpha" operator="arithmetic" k2="-1" k3="1"/>
<feColorMatrix type="matrix" values="0 0 0 0 0.0941176 0 0 0 0 0.227451 0 0 0 0 0.376471 0 0 0 0.25 0"/>
<feBlend mode="normal" in2="shape" result="effect2_innerShadow_229_1918"/>
</filter>
</defs>
</svg>
