<svg width="476" height="476" viewBox="0 0 476 476" fill="none" xmlns="http://www.w3.org/2000/svg">
<circle cx="238" cy="238" r="196.112" fill="#183A60"/>
<circle cx="238" cy="238" r="237.619" stroke="#9F9F9F" stroke-width="0.7616"/>
<mask id="path-3-inside-1_229_1913" fill="white">
<path d="M238 0C174.878 0 114.342 25.0749 69.7086 69.7086C25.0749 114.342 4.76554e-06 174.878 0 238C-4.76554e-06 301.122 25.0749 361.658 69.7086 406.291C114.342 450.925 174.878 476 238 476V445.229C183.039 445.229 130.33 423.396 91.4671 384.533C52.6042 345.67 30.7712 292.96 30.7712 238C30.7712 183.039 52.6042 130.33 91.4671 91.4671C130.33 52.6042 183.04 30.7712 238 30.7712V0Z"/>
</mask>
<path d="M238 0C174.878 0 114.342 25.0749 69.7086 69.7086C25.0749 114.342 4.76554e-06 174.878 0 238C-4.76554e-06 301.122 25.0749 361.658 69.7086 406.291C114.342 450.925 174.878 476 238 476V445.229C183.039 445.229 130.33 423.396 91.4671 384.533C52.6042 345.67 30.7712 292.96 30.7712 238C30.7712 183.039 52.6042 130.33 91.4671 91.4671C130.33 52.6042 183.04 30.7712 238 30.7712V0Z" fill="#183A60" stroke="#FBFBFB" stroke-opacity="0.17" stroke-width="1.5232" mask="url(#path-3-inside-1_229_1913)"/>
</svg>
