<svg width="76" height="61" viewBox="0 0 76 61" fill="none" xmlns="http://www.w3.org/2000/svg">
<path d="M8.55995 3.42433V5.13643H5.74179V14H3.6206V5.13643H0.802437V3.42433H8.55995ZM12.1985 3.42433V9.96973C12.1985 10.6869 12.3854 11.2374 12.7591 11.6212C13.1329 11.995 13.6581 12.1818 14.3349 12.1818C15.0217 12.1818 15.552 11.995 15.9258 11.6212C16.2995 11.2374 16.4864 10.6869 16.4864 9.96973V3.42433H18.6227V9.95458C18.6227 10.8536 18.4258 11.6162 18.0318 12.2424C17.648 12.8586 17.1278 13.3232 16.4712 13.6364C15.8248 13.9495 15.1026 14.1061 14.3046 14.1061C13.5167 14.1061 12.7995 13.9495 12.1531 13.6364C11.5167 13.3232 11.0117 12.8586 10.6379 12.2424C10.2642 11.6162 10.0773 10.8536 10.0773 9.95458V3.42433H12.1985ZM12.941 2.40918C12.6581 2.40918 12.4208 2.31322 12.2288 2.12131C12.0369 1.92939 11.941 1.69202 11.941 1.40919C11.941 1.12636 12.0369 0.888992 12.2288 0.697074C12.4208 0.495055 12.6581 0.394046 12.941 0.394046C13.2238 0.394046 13.4612 0.495055 13.6531 0.697074C13.8551 0.888992 13.9561 1.12636 13.9561 1.40919C13.9561 1.69202 13.8551 1.92939 13.6531 2.12131C13.4612 2.31322 13.2238 2.40918 12.941 2.40918ZM15.744 2.40918C15.4611 2.40918 15.2238 2.31322 15.0318 2.12131C14.8399 1.92939 14.744 1.69202 14.744 1.40919C14.744 1.12636 14.8399 0.888992 15.0318 0.697074C15.2238 0.495055 15.4611 0.394046 15.744 0.394046C16.0268 0.394046 16.2642 0.495055 16.4561 0.697074C16.6581 0.888992 16.7591 1.12636 16.7591 1.40919C16.7591 1.69202 16.6581 1.92939 16.4561 2.12131C16.2642 2.31322 16.0268 2.40918 15.744 2.40918ZM26.1267 14L23.7934 9.87882H22.7934V14H20.6722V3.42433H24.6419C25.46 3.42433 26.157 3.57079 26.7327 3.86372C27.3085 4.14654 27.7378 4.53543 28.0206 5.03037C28.3135 5.51522 28.46 6.06067 28.46 6.66672C28.46 7.36369 28.258 7.995 27.854 8.56065C27.4499 9.1162 26.8489 9.50004 26.0509 9.71215L28.5812 14H26.1267ZM22.7934 8.28792H24.5661C25.1419 8.28792 25.5711 8.15156 25.854 7.87884C26.1368 7.59601 26.2782 7.20712 26.2782 6.71218C26.2782 6.22733 26.1368 5.8536 25.854 5.59098C25.5711 5.31825 25.1419 5.18189 24.5661 5.18189H22.7934V8.28792ZM36.3482 14L32.4997 9.28792V14H30.3786V3.42433H32.4997V8.16671L36.3482 3.42433H38.9088L34.5452 8.66671L39.03 14H36.3482ZM51.9554 3.42433V14H49.8342V7.12127L47.0009 14H45.3949L42.5464 7.12127V14H40.4252V3.42433H42.8343L46.1979 11.2879L49.5615 3.42433H51.9554ZM56.1738 5.13643V7.78793H59.7344V9.46973H56.1738V12.2727H60.1889V14H54.0526V3.40917H60.1889V5.13643H56.1738ZM71.162 14H69.0408L64.2378 6.74248V14H62.1166V3.40917H64.2378L69.0408 10.6818V3.40917H71.162V14ZM17.77 26.4243C18.8811 26.4243 19.8558 26.6415 20.6942 27.0758C21.5427 27.5102 22.1942 28.1314 22.6487 28.9395C23.1134 29.7374 23.3457 30.6667 23.3457 31.7273C23.3457 32.7879 23.1134 33.7172 22.6487 34.5152C22.1942 35.303 21.5427 35.9141 20.6942 36.3485C19.8558 36.7828 18.8811 37 17.77 37H14.073V26.4243H17.77ZM17.6942 35.197C18.8053 35.197 19.6639 34.894 20.27 34.2879C20.876 33.6818 21.1791 32.8283 21.1791 31.7273C21.1791 30.6263 20.876 29.7677 20.27 29.1516C19.6639 28.5253 18.8053 28.2122 17.6942 28.2122H16.1942V35.197H17.6942ZM27.0547 28.1364V30.7879H30.6153V32.4697H27.0547V35.2727H31.0698V37H24.9335V26.4092H31.0698V28.1364H27.0547ZM44.5277 26.4243V37H42.4065V30.1213L39.5732 37H37.9672L35.1187 30.1213V37H32.9975V26.4243H35.4066L38.7702 34.2879L42.1338 26.4243H44.5277ZM48.7461 26.4243V37H46.6249V26.4243H48.7461ZM56.2963 37L53.963 32.8788H52.963V37H50.8418V26.4243H54.8115C55.6297 26.4243 56.3266 26.5708 56.9024 26.8637C57.4781 27.1465 57.9074 27.5354 58.1902 28.0304C58.4832 28.5152 58.6296 29.0607 58.6296 29.6667C58.6296 30.3637 58.4276 30.995 58.0236 31.5606C57.6195 32.1162 57.0185 32.5 56.2206 32.7122L58.7508 37H56.2963ZM52.963 31.2879H54.7357C55.3115 31.2879 55.7408 31.1516 56.0236 30.8788C56.3064 30.596 56.4478 30.2071 56.4478 29.7122C56.4478 29.2273 56.3064 28.8536 56.0236 28.591C55.7408 28.3182 55.3115 28.1819 54.7357 28.1819H52.963V31.2879ZM5.93918 60.1061C4.94928 60.1061 4.0402 59.8737 3.21192 59.4091C2.38365 58.9445 1.72709 58.303 1.24224 57.4849C0.757398 56.6566 0.514975 55.7223 0.514975 54.6819C0.514975 53.6516 0.757398 52.7273 1.24224 51.9092C1.72709 51.0809 2.38365 50.4344 3.21192 49.9698C4.0402 49.5051 4.94928 49.2728 5.93918 49.2728C6.93917 49.2728 7.84825 49.5051 8.66643 49.9698C9.4947 50.4344 10.1462 51.0809 10.621 51.9092C11.1058 52.7273 11.3482 53.6516 11.3482 54.6819C11.3482 55.7223 11.1058 56.6566 10.621 57.4849C10.1462 58.303 9.4947 58.9445 8.66643 59.4091C7.83815 59.8737 6.92907 60.1061 5.93918 60.1061ZM5.93918 58.2121C6.57553 58.2121 7.13614 58.0707 7.62098 57.7879C8.10583 57.495 8.48461 57.0808 8.75734 56.5455C9.03006 56.0101 9.16642 55.3889 9.16642 54.6819C9.16642 53.9748 9.03006 53.3586 8.75734 52.8334C8.48461 52.298 8.10583 51.889 7.62098 51.6061C7.13614 51.3233 6.57553 51.1819 5.93918 51.1819C5.30282 51.1819 4.73716 51.3233 4.24222 51.6061C3.75737 51.889 3.37859 52.298 3.10586 52.8334C2.83314 53.3586 2.69678 53.9748 2.69678 54.6819C2.69678 55.3889 2.83314 56.0101 3.10586 56.5455C3.37859 57.0808 3.75737 57.495 4.24222 57.7879C4.73716 58.0707 5.30282 58.2121 5.93918 58.2121ZM4.5301 48.4092C4.24727 48.4092 4.0099 48.3132 3.81798 48.1213C3.62606 47.9294 3.5301 47.692 3.5301 47.4092C3.5301 47.1264 3.62606 46.889 3.81798 46.6971C4.0099 46.4951 4.24727 46.394 4.5301 46.394C4.81292 46.394 5.05029 46.4951 5.24221 46.6971C5.44423 46.889 5.54524 47.1264 5.54524 47.4092C5.54524 47.692 5.44423 47.9294 5.24221 48.1213C5.05029 48.3132 4.81292 48.4092 4.5301 48.4092ZM7.3331 48.4092C7.05028 48.4092 6.81291 48.3132 6.62099 48.1213C6.42907 47.9294 6.33311 47.692 6.33311 47.4092C6.33311 47.1264 6.42907 46.889 6.62099 46.6971C6.81291 46.4951 7.05028 46.394 7.3331 46.394C7.61593 46.394 7.8533 46.4951 8.04522 46.6971C8.24724 46.889 8.34825 47.1264 8.34825 47.4092C8.34825 47.692 8.24724 47.9294 8.04522 48.1213C7.8533 48.3132 7.61593 48.4092 7.3331 48.4092ZM21.9717 60H19.8505L15.0475 52.7425V60H12.9263V49.4092H15.0475L19.8505 56.6818V49.4092H21.9717V60ZM26.1588 49.4243V55.9697C26.1588 56.6869 26.3457 57.2374 26.7194 57.6212C27.0932 57.995 27.6184 58.1818 28.2952 58.1818C28.982 58.1818 29.5123 57.995 29.8861 57.6212C30.2598 57.2374 30.4467 56.6869 30.4467 55.9697V49.4243H32.583V55.9546C32.583 56.8536 32.3861 57.6162 31.9921 58.2424C31.6083 58.8586 31.0881 59.3232 30.4315 59.6364C29.7851 59.9495 29.0628 60.1061 28.2649 60.1061C27.477 60.1061 26.7598 59.9495 26.1134 59.6364C25.477 59.3232 24.972 58.8586 24.5982 58.2424C24.2245 57.6162 24.0376 56.8536 24.0376 55.9546V49.4243H26.1588ZM26.9012 48.4092C26.6184 48.4092 26.3811 48.3132 26.1891 48.1213C25.9972 47.9294 25.9013 47.692 25.9013 47.4092C25.9013 47.1264 25.9972 46.889 26.1891 46.6971C26.3811 46.4951 26.6184 46.394 26.9012 46.394C27.1841 46.394 27.4214 46.4951 27.6134 46.6971C27.8154 46.889 27.9164 47.1264 27.9164 47.4092C27.9164 47.692 27.8154 47.9294 27.6134 48.1213C27.4214 48.3132 27.1841 48.4092 26.9012 48.4092ZM29.7043 48.4092C29.4214 48.4092 29.1841 48.3132 28.9921 48.1213C28.8002 47.9294 28.7043 47.692 28.7043 47.4092C28.7043 47.1264 28.8002 46.889 28.9921 46.6971C29.1841 46.4951 29.4214 46.394 29.7043 46.394C29.9871 46.394 30.2245 46.4951 30.4164 46.6971C30.6184 46.889 30.7194 47.1264 30.7194 47.4092C30.7194 47.692 30.6184 47.9294 30.4164 48.1213C30.2245 48.3132 29.9871 48.4092 29.7043 48.4092ZM46.1627 49.4243V60H44.0415V53.1213L41.2082 60H39.6021L36.7537 53.1213V60H34.6325V49.4243H37.0416L40.4052 57.2879L43.7688 49.4243H46.1627ZM50.3811 58.3182H53.8659V60H48.2599V49.4243H50.3811V58.3182ZM57.3353 51.1364V53.7879H60.8959V55.4697H57.3353V58.2727H61.3504V60H55.2141V49.4092H61.3504V51.1364H57.3353ZM68.7326 60L66.3993 55.8788H65.3993V60H63.2781V49.4243H67.2478C68.0659 49.4243 68.7629 49.5708 69.3387 49.8637C69.9144 50.1465 70.3437 50.5354 70.6265 51.0304C70.9194 51.5152 71.0659 52.0607 71.0659 52.6667C71.0659 53.3637 70.8639 53.995 70.4599 54.5606C70.0558 55.1162 69.4548 55.5 68.6568 55.7122L71.1871 60H68.7326ZM65.3993 54.2879H67.172C67.7478 54.2879 68.177 54.1516 68.4599 53.8788C68.7427 53.596 68.8841 53.2071 68.8841 52.7122C68.8841 52.2273 68.7427 51.8536 68.4599 51.591C68.177 51.3182 67.7478 51.1819 67.172 51.1819H65.3993V54.2879ZM75.1057 49.4243V60H72.9845V49.4243H75.1057Z" fill="#333333"/>
</svg>
