<svg width="450" height="450" viewBox="0 0 450 450" fill="none" xmlns="http://www.w3.org/2000/svg">
<circle cx="225" cy="225" r="224.64" stroke="#D9D9D9" stroke-width="0.72"/>
<circle cx="225.36" cy="225.36" r="180.36" fill="#183A60" stroke="#787878" stroke-width="0.72"/>
<g filter="url(#filter0_di_60_647)">
<path d="M350.076 280.639C349.981 280.869 349.874 281.092 349.756 281.31C337.826 304.639 319.262 323.917 296.4 336.718C273.538 349.518 247.4 355.27 221.276 353.248C221.276 328.141 221.276 337.443 221.276 312.424C208.592 310.962 196.352 306.868 185.34 300.406C174.328 293.944 164.785 285.254 157.323 274.894C149.861 264.533 144.642 252.729 142.002 240.237C139.362 227.744 139.358 214.839 141.99 202.344C143.428 195.503 145.649 188.849 148.609 182.516L131.113 171.785C123.885 186.513 119.976 202.647 119.661 219.049C119.346 235.452 122.632 251.725 129.288 266.719C135.945 281.714 145.809 295.067 158.186 305.835C170.563 316.604 185.151 324.527 200.922 329.045V350.099C183.895 346.015 167.848 338.591 153.712 328.258C134.234 313.939 118.998 294.611 109.622 272.329C100.866 251.419 97.633 228.61 100.232 206.09C102.831 183.571 111.176 162.098 124.464 143.733L159.456 165.049C167.29 154.929 177.158 146.564 188.424 140.493C199.689 134.422 212.102 130.78 224.862 129.802C237.622 128.823 250.445 130.531 262.505 134.814C274.564 139.097 285.592 145.86 294.876 154.668C298.017 157.705 300.94 160.96 303.624 164.407H274.464C263.913 156.519 251.375 151.722 238.253 150.552C225.131 149.382 211.942 151.886 200.162 157.784C188.381 163.682 178.474 172.74 171.548 183.947C164.622 195.154 160.95 208.066 160.944 221.24C160.944 281.048 227.458 309.858 271.082 280.669H301.496C290.992 293.012 277.411 302.358 262.129 307.758C255.523 310.071 248.675 311.627 241.717 312.395C241.717 312.541 241.717 332.807 241.717 332.953C261.045 331.252 279.592 324.527 295.518 313.445C308.019 304.767 318.633 293.647 326.719 280.756L350.076 280.639Z" fill="white"/>
<path d="M351.36 164.436H328.324C327.659 163.008 326.837 161.658 325.874 160.412C317.008 146.684 305.244 135.063 291.409 126.365C277.573 117.667 262.001 112.102 245.787 110.063C229.572 108.023 213.107 109.557 197.549 114.558C181.99 119.558 167.715 127.904 155.725 139.008L137.762 128.044C152.726 112.958 171.101 101.695 191.335 95.2058C211.568 88.7166 233.066 87.1921 254.013 90.7609C274.96 94.3298 294.741 102.887 311.684 115.71C328.627 128.534 342.236 145.246 351.36 164.436Z" fill="#E24339"/>
<path fill-rule="evenodd" clip-rule="evenodd" d="M185.334 173.607C185.226 173.715 185.138 189.2 185.138 208.019V242.233H193.044H200.95V229.089V215.945H204.392H207.834L220.861 229.089L233.889 242.233H245.455H257.021L243.234 228.277C230.188 215.07 224.375 208.908 224.375 208.285C224.375 208.056 241.639 189.661 253.731 177.005C255.49 175.165 256.865 173.594 256.786 173.515C256.708 173.436 251.492 173.467 245.197 173.583L233.75 173.796L224.598 183.277C219.565 188.491 213.875 194.385 211.954 196.376L208.462 199.994H204.706H200.95V186.702V173.41H193.24C188.999 173.41 185.441 173.499 185.334 173.607ZM261.855 207.822V242.233H269.761H277.667V207.822V173.41H269.761H261.855V207.822ZM291.143 173.884C286.707 175.086 284.082 178.285 283.241 183.516C283.053 184.686 282.941 195.896 282.94 213.803L282.937 242.233H290.84H298.743L298.82 229.015L298.896 215.797L320.857 215.649C342.565 215.503 342.835 215.494 344.37 214.859C347.539 213.549 349.72 211.203 350.778 207.969C351.255 206.509 351.309 205.148 351.309 194.53C351.309 183.921 351.255 182.548 350.779 181.09C349.596 177.465 347.227 175.122 343.604 173.994C341.8 173.431 340.835 173.411 317.239 173.43C296.645 173.446 292.491 173.518 291.143 173.884ZM335.644 194.382V199.699H317.196H298.749V194.579C298.749 191.763 298.837 189.37 298.945 189.262C299.052 189.154 307.353 189.065 317.392 189.065H335.644V194.382Z" fill="white"/>
<path fill-rule="evenodd" clip-rule="evenodd" d="M186.892 253.235C186.054 253.523 185.602 253.965 185.287 254.806C185.139 255.2 185.138 255.237 185.138 261.169C185.138 266.741 185.147 267.162 185.264 267.521C185.545 268.382 186.147 268.961 187.018 269.204C187.463 269.329 187.845 269.335 194.388 269.335H201.289V267.451V265.567H195.062H188.836L188.854 264.328L188.873 263.089L195.082 263.071L201.291 263.053L201.272 261.187L201.254 259.32L195.045 259.302L188.836 259.284L188.854 258.046L188.873 256.807L195.081 256.79L201.289 256.772V254.923V253.073L194.32 253.075L187.352 253.077L186.892 253.235ZM204.47 253.172C203.744 253.378 203.224 253.766 202.919 254.332C202.524 255.066 202.535 254.822 202.534 262.373L202.534 269.335H204.401H206.269V263.053V256.771L210.609 256.789L214.949 256.807L214.966 263.071L214.984 269.335H216.818H218.652L218.632 262.234C218.617 256.884 218.592 255.072 218.528 254.887C218.268 254.127 217.67 253.497 216.964 253.238C216.629 253.116 216.276 253.108 210.695 253.096C206.112 253.087 204.711 253.104 204.47 253.172ZM221.892 253.175C221.066 253.404 220.437 253.943 220.178 254.64C219.908 255.369 219.886 255.941 219.91 261.588C219.931 266.462 219.946 267.038 220.053 267.405C220.282 268.187 220.671 268.677 221.332 269.013C221.978 269.342 222.059 269.346 228.229 269.322L234.039 269.301L234.422 269.144C235.184 268.833 235.597 268.404 235.89 267.62C236.042 267.212 236.045 267.152 236.064 263.245L236.083 259.284L231.741 259.302L227.399 259.32L227.38 261.187L227.362 263.054H229.853H232.344V264.31V265.567H227.986H223.628L223.646 261.187L223.664 256.807L229.871 256.79L236.079 256.772V254.923V253.073L229.145 253.08C223.763 253.084 222.14 253.106 221.892 253.175ZM237.324 261.204V269.335H239.191H241.059V261.204V253.073H239.191H237.324V261.204ZM244.16 253.206C243.155 253.533 242.554 254.264 242.377 255.377C242.331 255.669 242.305 258.226 242.304 262.583L242.304 269.335H244.171H246.038L246.056 263.071L246.073 256.807L250.414 256.789L254.754 256.771V263.053V269.335H256.621H258.489L258.487 262.513C258.486 255.143 258.487 255.153 258.117 254.418C257.892 253.968 257.341 253.472 256.843 253.269L256.448 253.108L250.5 253.094C244.912 253.08 244.528 253.087 244.16 253.206ZM261.522 253.235C260.683 253.523 260.232 253.965 259.917 254.806C259.769 255.2 259.768 255.237 259.768 261.169C259.768 266.84 259.775 267.157 259.899 267.54C260.145 268.295 260.653 268.836 261.413 269.151C261.773 269.3 261.796 269.301 268.846 269.32L275.918 269.339V267.453V265.567H269.692H263.465L263.484 264.328L263.503 263.089L269.712 263.071L275.921 263.053L275.902 261.187L275.884 259.32L269.675 259.302L263.465 259.284L263.484 258.046L263.503 256.807L269.711 256.79L275.918 256.772V254.923V253.073L268.95 253.075L261.981 253.077L261.522 253.235ZM279.093 253.174C278.095 253.452 277.456 254.138 277.236 255.167C277.176 255.45 277.16 257.087 277.176 261.414C277.198 267.272 277.198 267.277 277.35 267.652C277.671 268.443 278.052 268.831 278.813 269.141L279.204 269.301L286.277 269.32L293.35 269.339L293.332 267.47L293.314 265.601L287.106 265.584L280.898 265.566V264.304V263.041L281.365 263.055C281.622 263.063 284.424 263.066 287.591 263.062L293.35 263.054L293.332 261.187L293.314 259.32L287.106 259.302L280.898 259.284V258.022V256.76L281.365 256.774C281.622 256.782 284.423 256.784 287.59 256.78L293.348 256.772V254.923V253.073L286.38 253.08C280.974 253.084 279.34 253.106 279.093 253.174ZM296.53 253.168C295.754 253.381 295.136 253.879 294.856 254.519C294.539 255.242 294.529 255.495 294.526 262.618L294.524 269.335H296.391H298.257L298.275 266.212L298.293 263.089L299.085 263.069L299.876 263.049L302.994 266.192L306.111 269.335H308.842H311.573L308.512 266.247C306.829 264.548 305.452 263.137 305.452 263.112C305.452 263.086 306.176 263.053 307.06 263.039C308.521 263.016 308.703 262.999 309.052 262.859C309.809 262.556 310.298 262.04 310.553 261.277C310.729 260.75 310.769 255.737 310.603 255.088C310.33 254.025 309.768 253.445 308.748 253.171C308.256 253.039 297.01 253.036 296.53 253.168ZM312.645 261.204V269.335H314.513H316.38V261.204V253.073H314.513H312.645V261.204ZM319.631 253.168C318.466 253.488 317.843 254.274 317.69 255.619C317.655 255.927 317.626 259.139 317.626 262.757L317.625 269.335H319.492H321.359L321.377 263.071L321.395 256.807H325.718H330.041L330.058 263.071L330.076 269.335H331.943H333.81L333.809 262.443C333.808 255.153 333.805 255.074 333.49 254.448C333.174 253.819 332.6 253.372 331.849 253.171C331.357 253.039 320.111 253.036 319.631 253.168ZM336.913 253.235C336.287 253.45 335.909 253.731 335.603 254.208C335.146 254.92 335.159 254.717 335.159 261.274V267.207L335.314 267.618C335.625 268.441 336.2 268.969 337.038 269.204C337.48 269.328 337.839 269.335 343.215 269.335C347.76 269.334 348.993 269.315 349.269 269.24C350.471 268.916 351.083 268.158 351.246 266.791C351.283 266.478 351.304 264.703 351.294 262.775L351.274 259.32L346.934 259.302L342.594 259.284V261.168V263.052L345.067 263.07L347.539 263.089L347.558 264.328L347.577 265.567H343.218H338.859V261.169V256.772H345.084H351.309V254.923V253.073L344.341 253.075L337.372 253.077L336.913 253.235ZM306.974 258.029V259.285H302.616H298.259V258.075C298.259 257.41 298.28 256.845 298.305 256.819C298.33 256.793 300.291 256.772 302.662 256.772H306.974V258.029Z" fill="white"/>
</g>
<defs>
<filter id="filter0_di_60_647" x="99.36" y="88.8799" width="260.64" height="273.404" filterUnits="userSpaceOnUse" color-interpolation-filters="sRGB">
<feFlood flood-opacity="0" result="BackgroundImageFix"/>
<feColorMatrix in="SourceAlpha" type="matrix" values="0 0 0 0 0 0 0 0 0 0 0 0 0 0 0 0 0 0 127 0" result="hardAlpha"/>
<feOffset dx="5.04" dy="5.04"/>
<feGaussianBlur stdDeviation="1.8"/>
<feComposite in2="hardAlpha" operator="out"/>
<feColorMatrix type="matrix" values="0 0 0 0 0 0 0 0 0 0 0 0 0 0 0 0 0 0 0.25 0"/>
<feBlend mode="normal" in2="BackgroundImageFix" result="effect1_dropShadow_60_647"/>
<feBlend mode="normal" in="SourceGraphic" in2="effect1_dropShadow_60_647" result="shape"/>
<feColorMatrix in="SourceAlpha" type="matrix" values="0 0 0 0 0 0 0 0 0 0 0 0 0 0 0 0 0 0 127 0" result="hardAlpha"/>
<feOffset dy="2.16"/>
<feGaussianBlur stdDeviation="1.44"/>
<feComposite in2="hardAlpha" operator="arithmetic" k2="-1" k3="1"/>
<feColorMatrix type="matrix" values="0 0 0 0 0.0941176 0 0 0 0 0.227451 0 0 0 0 0.376471 0 0 0 0.25 0"/>
<feBlend mode="normal" in2="shape" result="effect2_innerShadow_60_647"/>
</filter>
</defs>
</svg>
